<svg xmlns="http://www.w3.org/2000/svg" viewBox="0 0 200 200"><linearGradient id="a" gradientUnits="userSpaceOnUse" x1="14.582" y1="57.182" x2="187.86" y2="57.182"><stop offset="0" stop-color="#435c92"/><stop offset="1" stop-color="#4f7bbc"/></linearGradient><path d="M15.6 48c29-46.5 90.2-60.6 136.6-31.6 22.1 13.8 35.6 38.7 35.6 38.7S112.1 28.9 77.2 113c-34.5-5-69-53-61.6-65z" fill="url(#a)"/><linearGradient id="b" gradientUnits="userSpaceOnUse" x1="58.736" y1="-22.299" x2="232.015" y2="-22.299" gradientTransform="rotate(122.175 100.26 48.434)"><stop offset="0" stop-color="#435c92"/><stop offset="1" stop-color="#4f7bbc"/></linearGradient><path d="M189.4 56.7c23.9 49.3 3.3 108.6-46 132.5-23.5 11.4-51.7 9.6-51.7 9.6s62.5-50.2 9.9-124.5c22.6-26.7 81.7-30.3 87.8-17.6z" fill="url(#b)"/><linearGradient id="c" gradientUnits="userSpaceOnUse" x1="-15.187" y1="-1.929" x2="158.092" y2="-1.929" gradientTransform="rotate(-121.818 101.39 62.382)"><stop offset="0" stop-color="#435c92"/><stop offset="1" stop-color="#4f7bbc"/></linearGradient><path d="M99.9 199.3C45.1 199.2.9 154.6 1 99.9c.1-26.1 14.1-50.7 14.1-50.7s17.7 78.2 107.5 63.5c14 32-8.7 86.6-22.7 86.6z" fill="url(#c)"/></svg>